<svg xmlns="http://www.w3.org/2000/svg" viewBox="0 0 200 200"><defs><style>.cls-1{fill:#4dbcbe;}.cls-2{fill:#fff;}</style></defs><title>Artboard 1</title><g id="Layer_1" data-name="Layer 1"><circle class="cls-1" cx="100.54" cy="99.66" r="98.37"/></g><g id="Layer_2" data-name="Layer 2"><path class="cls-2" d="M143.54,39.79c.6-1.61-1.94-4.41-2.4-4.9l0,0h-.06l0,0v0c-.65-.15-4.36-.93-5.44.39s-56.3,34.93-68,82.62L87.05,129l.09.05,19.44,11.15C141.83,106,142.89,41.54,143.54,39.79Z"/><path class="cls-2" d="M87.77,78.55s-28.12-7.22-48.27,36c0,0,30.48-13.46,32.76-5l17.19-30Z"/><path class="cls-2" d="M130.17,102.86s20.43,20.63-6.68,59.84c0,0-3.78-33.1-12.2-30.82l17.2-30Z"/><path class="cls-2" d="M71.75,153.55s-3.63-4.07-1.83-7.2,6.78-5.25,10.62-2.25,1.49,15.75-5.71,17.57-10,5-10,5l13-.9s7.83-2.25,10.83-6.1,7.11-13.39,3.22-18.4-9-9.31-15.06-9.43-11.79,2.57-14.06,5.83S59.85,149.71,71.75,153.55Z"/></g><g id="Layer_3" data-name="Layer 3"><circle class="cls-1" cx="119.66" cy="73.21" r="10.33"/></g></svg>