<svg version="1.1" id="Layer_1" xmlns="http://www.w3.org/2000/svg" xmlns:xlink="http://www.w3.org/1999/xlink" x="0px" y="0px"
	 viewBox="0 0 200 200" style="enable-background:new 0 0 200 200;" xml:space="preserve">
<style type="text/css">
	.st0{fill:#DBE9EE;}
</style>
<g>
	<path class="st0" d="M185.7,51.3c-8.9-15.5-20.9-27.7-36.1-36.7C134.4,5.5,117.8,1,99.7,1c-18,0-34.6,4.5-49.8,13.5
		c-15.2,9-27.2,21.3-36.1,36.7C4.9,66.8,0.5,83.7,0.5,102c0,22,6.3,41.8,18.9,59.4c12.6,17.6,28.9,29.7,48.9,36.5
		c2.3,0.4,4,0.1,5.2-0.9c1.1-1.1,1.7-2.4,1.7-3.9c0-0.3,0-2.6-0.1-7.1c0-4.5-0.1-8.4-0.1-11.7l-3,0.5c-1.9,0.4-4.3,0.5-7.2,0.5
		c-2.9,0-5.9-0.3-9-0.9c-3.1-0.6-6-1.9-8.7-3.9c-2.7-2.1-4.6-4.8-5.7-8.1l-1.3-3c-0.9-2-2.2-4.3-4.1-6.7c-1.9-2.5-3.7-4.1-5.6-5
		l-0.9-0.7c-0.6-0.4-1.2-1-1.7-1.6c-0.5-0.6-0.9-1.2-1.2-1.8c-0.3-0.6,0-1.1,0.6-1.5c0.7-0.4,1.9-0.6,3.7-0.6l2.6,0.4
		c1.7,0.4,3.9,1.4,6.4,3.2c2.5,1.8,4.6,4,6.3,6.8c2,3.6,4.4,6.3,7.2,8.2c2.8,1.9,5.6,2.8,8.5,2.8c2.8,0,5.3-0.2,7.4-0.7
		c2.1-0.4,4-1.1,5.8-2c0.8-5.9,2.9-10.4,6.3-13.5c-4.9-0.5-9.3-1.3-13.2-2.4c-3.9-1.1-8-2.8-12.1-5.1c-4.2-2.4-7.6-5.3-10.4-8.8
		c-2.8-3.5-5-8.1-6.8-13.8c-1.8-5.7-2.6-12.3-2.6-19.7c0-10.6,3.4-19.6,10.2-27.1c-3.2-8-2.9-16.9,0.9-26.8
		c2.5-0.8,6.2-0.2,11.1,1.8c4.9,2,8.5,3.7,10.8,5.1c2.3,1.4,4.1,2.6,5.5,3.5c8-2.3,16.3-3.4,24.8-3.4s16.8,1.1,24.8,3.4l4.9-3.2
		c3.4-2.1,7.3-4,11.9-5.8c4.6-1.8,8.1-2.2,10.5-1.4c3.9,9.9,4.2,18.8,1,26.8c6.8,7.5,10.2,16.5,10.2,27.1c0,7.4-0.9,14-2.6,19.8
		c-1.8,5.7-4,10.3-6.8,13.8c-2.8,3.5-6.3,6.4-10.5,8.7c-4.2,2.4-8.2,4.1-12.1,5.1c-3.9,1.1-8.3,1.8-13.2,2.4
		c4.5,3.9,6.7,10.2,6.7,18.7v27.7c0,1.6,0.5,2.9,1.6,3.9c1.1,1,2.8,1.4,5.1,0.9c20-6.7,36.3-18.9,48.9-36.5
		C192.7,143.7,199,124,199,102C199,83.6,194.6,66.8,185.7,51.3z"/>
</g>
</svg>
