<svg xmlns="http://www.w3.org/2000/svg" viewBox="0 0 200 200"><defs><style>.cls-1{fill:#4dbcbe;}.cls-2,.cls-3,.cls-4,.cls-5{fill:none;stroke:#fff;stroke-miterlimit:10;}.cls-2{stroke-width:2px;}.cls-3{stroke-width:7px;}.cls-4{stroke-width:8px;}.cls-5{stroke-width:5px;}</style></defs><title>Artboard 1</title><g id="Layer_1" data-name="Layer 1"><circle class="cls-1" cx="99.54" cy="99.66" r="98.37"/></g><g id="Layer_2" data-name="Layer 2"><line class="cls-2" x1="113.53" y1="129.21" x2="83.97" y2="129.21"/><line class="cls-2" x1="81.34" y1="136.69" x2="114.24" y2="136.69"/><line class="cls-2" x1="81.34" y1="141.52" x2="114.24" y2="141.52"/><line class="cls-2" x1="81.34" y1="146.34" x2="114.24" y2="146.34"/><line class="cls-2" x1="81.34" y1="151.16" x2="114.24" y2="151.16"/><line class="cls-2" x1="81.97" y1="155.66" x2="114.87" y2="155.66"/><path class="cls-3" d="M80.05,129.21v30.88a5.86,5.86,0,0,0,5.15,2.57c3.44-.21,26.41,0,26.41,0s5.15-.23,6-3.24,0-28.34,0-28.34v-1.89Z"/></g><g id="Layer_3" data-name="Layer 3"><ellipse class="cls-4" cx="98.93" cy="96.74" rx="33" ry="32.26"/></g><g id="Layer_4" data-name="Layer 4"><line class="cls-5" x1="39.06" y1="60.4" x2="58" y2="73.8"/><line class="cls-5" x1="137.57" y1="74.28" x2="157.04" y2="61.66"/><line class="cls-5" x1="123.12" y1="56.8" x2="138.16" y2="39.14"/><line class="cls-5" x1="62.54" y1="37.67" x2="74.57" y2="57.51"/><line class="cls-5" x1="98.93" y1="29" x2="99.35" y2="52.2"/><line class="cls-5" x1="29.07" y1="92.14" x2="52.26" y2="92.76"/><line class="cls-5" x1="143.57" y1="93.89" x2="166.77" y2="94.51"/></g></svg>