<svg version="1.1" id="Layer_1" xmlns="http://www.w3.org/2000/svg" xmlns:xlink="http://www.w3.org/1999/xlink" x="0px" y="0px"
	 viewBox="0 0 200 200" style="enable-background:new 0 0 200 200;" xml:space="preserve">
<style type="text/css">
	.st0{fill:#DBE9EE;}
</style>
<g>
	<g>
		<g>
			<path class="st0" d="M118.3,85.4c-8.5,0-12.3,4.7-14.4,8v-6.8h-16c0.2,4.5,0,48.3,0,48.3h16v-27c0-1.4,0.1-2.9,0.5-3.9
				c1.2-2.9,3.8-5.9,8.2-5.9c5.8,0,8.1,4.4,8.1,10.9v25.8h16h0v-27.7C136.8,92.3,128.8,85.4,118.3,85.4z M103.8,93.5h-0.1
				c0-0.1,0.1-0.1,0.1-0.2V93.5z"/>
			<rect x="62.9" y="86.5" class="st0" width="16" height="48.3"/>
			<path class="st0" d="M100.2,0C45.3,0,0.7,44.6,0.7,99.5c0,54.9,44.6,99.5,99.5,99.5c54.9,0,99.5-44.6,99.5-99.5
				C199.7,44.6,155,0,100.2,0z M152.9,144.5c0,4.2-3.5,7.7-7.9,7.7H54.6c-4.3,0-7.8-3.4-7.8-7.7V52.9c0-4.2,3.5-7.7,7.8-7.7h90.5
				c4.3,0,7.9,3.4,7.9,7.7C152.9,52.9,152.9,144.5,152.9,144.5z"/>
			<path class="st0" d="M71,63.2c-5.5,0-9.1,3.6-9.1,8.3c0,4.6,3.5,8.3,8.9,8.3h0.1c5.6,0,9.1-3.7,9.1-8.3
				C79.9,66.8,76.5,63.2,71,63.2z"/>
		</g>
	</g>
</g>
</svg>
