<svg xmlns="http://www.w3.org/2000/svg" viewBox="0 0 200 200"><defs><style>.cls-1,.cls-2{fill:#4dbcbe;}.cls-2{stroke:#fff;stroke-miterlimit:10;stroke-width:6px;}</style></defs><title>Artboard 1</title><g id="Layer_1" data-name="Layer 1"><circle class="cls-1" cx="100.54" cy="99.66" r="98.37"/></g><g id="Layer_2" data-name="Layer 2"><path class="cls-2" d="M101.15,61.5H49.24s-6.66.56-7.22,5,0,67.73,0,67.73.28,6.11,4.45,5.83,54.68,0,54.68,0"/><path class="cls-2" d="M100.63,61.5h51.91s6.66.56,7.21,5,0,67.73,0,67.73-.27,6.11-4.44,5.83-54.68,0-54.68,0"/><path class="cls-2" d="M101.44,83.5H64.55s-4.73.39-5.12,3.55,0,48.12,0,48.12.19,4.34,3.15,4.14,38.86,0,38.86,0"/><path class="cls-2" d="M101.06,83.5H138s4.73.39,5.12,3.55,0,48.12,0,48.12-.19,4.34-3.15,4.14-38.86,0-38.86,0"/><path class="cls-2" d="M120.07,98.05h-8.76s-1.13.29-1.22,2.67,0,36.22,0,36.22,0,3.27.75,3.12,9.23,0,9.23,0"/><path class="cls-2" d="M120,98.05h8.76s1.12.29,1.22,2.67,0,36.22,0,36.22-.05,3.27-.75,3.12-9.23,0-9.23,0"/></g></svg>